<?xml version="1.0" encoding="utf-8"?>
<!-- Generator: Adobe Illustrator 25.3.1, SVG Export Plug-In . SVG Version: 6.00 Build 0)  -->
<svg version="1.1" id="Layer_1" xmlns="http://www.w3.org/2000/svg" xmlns:xlink="http://www.w3.org/1999/xlink" x="0px" y="0px"
	 viewBox="0 0 2000 2000" style="enable-background:new 0 0 2000 2000;" xml:space="preserve">
<path d="M1254.5,935.3c101.6-30.2,124.9-53.5,124.9-53.5c99.4-67.3,78.3-229.3-24.7-281.6c-0.7-0.3-11-5.1-12.1-5.5l-12.2-4.2
	c36.7,51.4,34.2,110.1,34.2,110.1c9.8,139.4-194.8,94.5-194.8,94.5s-58.1-21.3-110.1-19.8c-39.8,1.1-79.6,1.1-119.3,0
	c-52-1.5-110.1,19.8-110.1,19.8s-204.6,44.9-194.8-94.5c0,0-2.4-58.7,34.2-110.1l-12.2,4.2c-1.1,0.4-11.5,5.2-12.1,5.5
	c-103,52.3-124.1,214.3-24.7,281.6c0,0,23.3,23.3,124.9,53.5c-58.2-13.9-166.5-29.1-169.8,50c0,0,95.4,124,182.1,77.9
	c0,0,27.7-15.7,32,2.4c13.5,57.2,23.1,93.1,51,145.6c7.1,13.4,11.2,21.8,13.6,27.1c2.2,4.9,3,10.3,2.3,15.7
	c-8.9,69.5,2.7,111.2,36.1,114.7c7.7,17.1,31.7,44.8,107.2,40.4c75.5,4.4,99.6-23.3,107.2-40.4c33.4-3.5,44.9-45.2,36.1-114.7
	c-0.7-5.3,0-10.8,2.3-15.7c2.4-5.3,6.5-13.7,13.6-27.1c27.8-52.5,37.5-88.4,51-145.6c4.3-18.1,32-2.4,32-2.4
	c86.7,46.1,182.1-77.9,182.1-77.9C1421,906.3,1312.7,921.4,1254.5,935.3z"/>
</svg>
